<svg xmlns="http://www.w3.org/2000/svg" viewBox="0 0 630 630">
  <rect width="630" height="630" fill="#f7df1e"/>
  <g transform="translate(60, 60)">
    <path d="m 165.34066,456.69672 c 15.6,0 27.5,-6.8 33.4,-16.5 l 24.5,15.6 c -11.4,19.9 -33.4,30.5 -57.9,30.5 -47.8,0 -77.9,-30.5 -77.9,-78.2 V 305.59672 h 50.3 v 102.5 c 0,19.9 8.9,29.6 27.6,29.6 z" fill="#000000"/>
    <path d="m 315.74066,456.69672 c 37.2,0 64.7,9.6 84.2,35.1 l -27.1,27.1 c -15.2,-18.6 -33.4,-25.8 -57.1,-25.8 -23.7,0 -38.1,12.7 -38.1,25.4 0,17.3 13.9,25.1 43.1,37.8 l 16.1,6.8 c 45.7,19.5 70.2,43.1 70.2,88 0,54.1 -38.9,79.9 -89.3,79.9 -52.4,0 -82.9,-18.6 -102.3,-48.6 l 24.2,-19.5 c 12.69,20.72 29.2,35.95 58.4,35.95 24.53,0 40.2,-12.26 40.2,-29.2 0,-20.3 -16.1,-27.49 -43.1,-39.3 l -14.8,-6.35 c -42.72,-18.2 -71.1,-41 -71.1,-89.2 0,-44.9 33.8,-78.2 86.6,-78.2 z" fill="#000000"/>
  </g>
</svg>
